Geologica-LightSharpItalic.ufo
<glyph name="comma" format="2">
  <advance width="504"/>
  <unicode hex="002C"/>
  <outline>
    <contour>
      <point x="-58" y="-236" type="line"/>
      <point x="119" y="-231"/>
      <point x="273" y="-99"/>
      <point x="273" y="65" type="curve" smooth="yes"/>
      <point x="273" y="131"/>
      <point x="232" y="178"/>
      <point x="165" y="178" type="curve" smooth="yes"/>
      <point x="104" y="178"/>
      <point x="56" y="136"/>
      <point x="56" y="74" type="curve" smooth="yes"/>
      <point x="56" y="17"/>
      <point x="115" y="-23"/>
      <point x="168" y="-12" type="curve"/>
      <point x="150" y="-88"/>
      <point x="64" y="-156"/>
      <point x="-41" y="-158" type="curve"/>
    </contour>
  </outline>
</glyph>
<glyph name="slash" format="2">
  <advance width="882"/>
  <unicode hex="002F"/>
  <guideline x="590" y="1316" angle="327.88009999999997"/>
  <guideline x="110" y="372" angle="327.88009999999997"/>
  <outline>
    <contour>
      <point x="-22" y="-220" type="line"/>
      <point x="1121" y="1600" type="line"/>
      <point x="998" y="1600" type="line"/>
      <point x="-144" y="-220" type="line"/>
    </contour>
  </outline>
</glyph>
<glyph name="zero" format="2">
  <advance width="1371"/>
  <unicode hex="0030"/>
  <outline>
    <contour>
      <point x="628" y="-30" type="curve" smooth="yes"/>
      <point x="1018" y="-30"/>
      <point x="1308" y="420"/>
      <point x="1308" y="856" type="curve" smooth="yes"/>
      <point x="1308" y="1174"/>
      <point x="1138" y="1430"/>
      <point x="836" y="1430" type="curve" smooth="yes"/>
      <point x="442" y="1430"/>
      <point x="156" y="978"/>
      <point x="156" y="540" type="curve" smooth="yes"/>
      <point x="156" y="222"/>
      <point x="326" y="-30"/>
    </contour>
    <contour>
      <point x="644" y="82" type="curve" smooth="yes"/>
      <point x="416" y="82"/>
      <point x="280" y="260"/>
      <point x="280" y="534" type="curve" smooth="yes"/>
      <point x="280" y="896"/>
      <point x="486" y="1318"/>
      <point x="820" y="1318" type="curve" smooth="yes"/>
      <point x="1050" y="1318"/>
      <point x="1184" y="1142"/>
      <point x="1184" y="868" type="curve" smooth="yes"/>
      <point x="1184" y="508"/>
      <point x="980" y="82"/>
    </contour>
  </outline>
</glyph>
<glyph name="one" format="2">
  <advance width="812"/>
  <unicode hex="0031"/>
  <guideline x="86" y="567" angle="108.9046"/>
  <guideline x="86" y="567" angle="257.9983"/>
  <outline>
    <contour>
      <point x="358" y="0" type="line"/>
      <point x="470" y="0" type="line"/>
      <point x="774" y="1430" type="line"/>
      <point x="764" y="1430" type="line"/>
      <point x="214" y="1238" type="line"/>
      <point x="192" y="1134" type="line"/>
      <point x="630" y="1284" type="line"/>
    </contour>
  </outline>
</glyph>
<glyph name="less" format="2">
  <advance width="1296"/>
  <unicode hex="003C"/>
  <outline>
    <contour>
      <point x="1065" y="242" type="line"/>
      <point x="1088" y="351" type="line"/>
      <point x="373" y="660" type="line"/>
      <point x="1218" y="970" type="line"/>
      <point x="1245" y="1100" type="line"/>
      <point x="229" y="712" type="line"/>
      <point x="211" y="620" type="line"/>
    </contour>
  </outline>
</glyph>
<glyph name="greater" format="2">
  <advance width="1296"/>
  <unicode hex="003E"/>
  <guideline x="98" y="489" angle="67.7944"/>
  <guideline x="151" y="515" angle="66.1706"/>
  <guideline x="74" y="151" angle="110.9415"/>
  <guideline x="320" y="1152" angle="78.1288"/>
  <outline>
    <contour>
      <point x="130" y="232" type="line"/>
      <point x="1146" y="620" type="line"/>
      <point x="1164" y="712" type="line"/>
      <point x="310" y="1090" type="line"/>
      <point x="287" y="981" type="line"/>
      <point x="1002" y="672" type="line"/>
      <point x="157" y="362" type="line"/>
    </contour>
  </outline>
</glyph>
<glyph name="S" format="2">
  <advance width="1236"/>
  <unicode hex="0053"/>
  <guideline x="583" y="597" angle="78.0016"/>
  <guideline x="64" y="110" angle="78.0016"/>
  <anchor x="552" y="0" name="bottom"/>
  <anchor x="810" y="1400" name="top"/>
  <outline>
    <contour>
      <point x="556" y="-30" type="curve" smooth="yes"/>
      <point x="850" y="-30"/>
      <point x="1064" y="132"/>
      <point x="1064" y="402" type="curve" smooth="yes"/>
      <point x="1064" y="550"/>
      <point x="978" y="658"/>
      <point x="808" y="720" type="curve" smooth="yes"/>
      <point x="646" y="780" type="line" smooth="yes"/>
      <point x="466" y="846"/>
      <point x="404" y="926"/>
      <point x="404" y="1030" type="curve" smooth="yes"/>
      <point x="404" y="1212"/>
      <point x="560" y="1326"/>
      <point x="768" y="1326" type="curve" smooth="yes"/>
      <point x="930" y="1326"/>
      <point x="1086" y="1278"/>
      <point x="1186" y="1194" type="curve"/>
      <point x="1210" y="1309" type="line"/>
      <point x="1113" y="1382"/>
      <point x="970" y="1430"/>
      <point x="800" y="1430" type="curve" smooth="yes"/>
      <point x="518" y="1430"/>
      <point x="294" y="1268"/>
      <point x="294" y="1006" type="curve" smooth="yes"/>
      <point x="294" y="862"/>
      <point x="382" y="756"/>
      <point x="560" y="690" type="curve" smooth="yes"/>
      <point x="710" y="634" type="line" smooth="yes"/>
      <point x="890" y="566"/>
      <point x="954" y="480"/>
      <point x="954" y="376" type="curve" smooth="yes"/>
      <point x="954" y="186"/>
      <point x="792" y="78"/>
      <point x="570" y="78" type="curve" smooth="yes"/>
      <point x="384" y="78"/>
      <point x="222" y="130"/>
      <point x="108" y="220" type="curve"/>
      <point x="83" y="101" type="line"/>
      <point x="200" y="17"/>
      <point x="378" y="-30"/>
    </contour>
  </outline>
</glyph>
<glyph name="bracketleft" format="2">
  <advance width="686"/>
  <unicode hex="005B"/>
  <outline>
    <contour>
      <point x="76" y="-220" type="line"/>
      <point x="384" y="-220" type="line"/>
      <point x="404" y="-124" type="line"/>
      <point x="196" y="-124" type="line"/>
      <point x="544" y="1504" type="line"/>
      <point x="752" y="1504" type="line"/>
      <point x="772" y="1600" type="line"/>
      <point x="464" y="1600" type="line"/>
    </contour>
  </outline>
</glyph>
<glyph name="backslash" format="2">
  <advance width="906"/>
  <unicode hex="005C"/>
  <guideline x="425" y="385" angle="11.5546"/>
  <guideline x="295" y="1305" angle="11.5546"/>
  <outline>
    <contour>
      <point x="632" y="-220" type="line"/>
      <point x="744" y="-220" type="line"/>
      <point x="368" y="1600" type="line"/>
      <point x="256" y="1600" type="line"/>
    </contour>
  </outline>
</glyph>
<glyph name="asciicircum" format="2">
  <advance width="1296"/>
  <unicode hex="005E"/>
  <outline>
    <contour>
      <point x="298" y="850" type="line"/>
      <point x="428" y="850" type="line"/>
      <point x="826" y="1308" type="line"/>
      <point x="1034" y="850" type="line"/>
      <point x="1156" y="850" type="line"/>
      <point x="904" y="1400" type="line"/>
      <point x="778" y="1400" type="line"/>
    </contour>
  </outline>
</glyph>
<glyph name="underscore" format="2">
  <advance width="1060"/>
  <unicode hex="005F"/>
  <outline>
    <contour>
      <point x="-132" y="-282" type="line"/>
      <point x="868" y="-282" type="line"/>
      <point x="888" y="-190" type="line"/>
      <point x="-112" y="-190" type="line"/>
    </contour>
  </outline>
</glyph>
<glyph name="r" format="2">
  <advance width="756"/>
  <unicode hex="0072"/>
  <guideline x="389" y="429" angle="258.0239"/>
  <anchor x="124" y="0" name="bottom"/>
  <anchor x="544" y="960" name="top"/>
  <outline>
    <contour>
      <point x="68" y="0" type="line"/>
      <point x="180" y="0" type="line"/>
      <point x="300" y="558" type="line" smooth="yes"/>
      <point x="342" y="756"/>
      <point x="490" y="874"/>
      <point x="666" y="874" type="curve" smooth="yes"/>
      <point x="704" y="874"/>
      <point x="740" y="868"/>
      <point x="778" y="858" type="curve"/>
      <point x="803" y="979" type="line"/>
      <point x="768" y="987"/>
      <point x="733" y="990"/>
      <point x="702" y="990" type="curve" smooth="yes"/>
      <point x="580" y="990"/>
      <point x="464" y="946"/>
      <point x="352" y="808" type="curve"/>
      <point x="392" y="1000" type="line"/>
      <point x="250" y="858" type="line"/>
    </contour>
  </outline>
</glyph>
<glyph name="braceleft" format="2">
  <advance width="686"/>
  <unicode hex="007B"/>
  <outline>
    <contour>
      <point x="384" y="-224" type="curve"/>
      <point x="404" y="-128" type="line"/>
      <point x="256" y="-142"/>
      <point x="222" y="-102"/>
      <point x="256" y="6" type="curve" smooth="yes"/>
      <point x="408" y="462" type="line" smooth="yes"/>
      <point x="456" y="606"/>
      <point x="438" y="668"/>
      <point x="332" y="690" type="curve"/>
      <point x="332" y="692" type="line"/>
      <point x="444" y="712"/>
      <point x="492" y="776"/>
      <point x="504" y="920" type="curve" smooth="yes"/>
      <point x="548" y="1374" type="line" smooth="yes"/>
      <point x="558" y="1480"/>
      <point x="610" y="1522"/>
      <point x="752" y="1508" type="curve"/>
      <point x="772" y="1604" type="line"/>
      <point x="578" y="1636"/>
      <point x="452" y="1544"/>
      <point x="436" y="1380" type="curve" smooth="yes"/>
      <point x="396" y="904" type="line" smooth="yes"/>
      <point x="384" y="768"/>
      <point x="354" y="740"/>
      <point x="190" y="740" type="curve"/>
      <point x="170" y="644" type="line"/>
      <point x="334" y="644"/>
      <point x="352" y="616"/>
      <point x="304" y="478" type="curve" smooth="yes"/>
      <point x="140" y="-4" type="line" smooth="yes"/>
      <point x="86" y="-166"/>
      <point x="170" y="-256"/>
    </contour>
  </outline>
</glyph>
<glyph name="sterling" format="2">
  <advance width="1296"/>
  <unicode hex="00A3"/>
  <guideline x="601" y="602" angle="78.0239"/>
  <outline>
    <contour>
      <point x="100" y="0" type="line"/>
      <point x="1040" y="0" type="line"/>
      <point x="1086" y="108" type="line"/>
      <point x="352" y="108" type="line"/>
      <point x="526" y="210"/>
      <point x="566" y="334"/>
      <point x="566" y="468" type="curve" smooth="yes"/>
      <point x="566" y="632"/>
      <point x="556" y="816"/>
      <point x="556" y="982" type="curve" smooth="yes"/>
      <point x="556" y="1196"/>
      <point x="682" y="1324"/>
      <point x="888" y="1324" type="curve" smooth="yes"/>
      <point x="1024" y="1324"/>
      <point x="1132" y="1288"/>
      <point x="1222" y="1204" type="curve"/>
      <point x="1244" y="1314" type="line"/>
      <point x="1158" y="1384"/>
      <point x="1040" y="1430"/>
      <point x="892" y="1430" type="curve" smooth="yes"/>
      <point x="632" y="1430"/>
      <point x="440" y="1254"/>
      <point x="440" y="996" type="curve" smooth="yes"/>
      <point x="440" y="816"/>
      <point x="468" y="656"/>
      <point x="468" y="486" type="curve" smooth="yes"/>
      <point x="468" y="276"/>
      <point x="358" y="176"/>
      <point x="122" y="106" type="curve"/>
    </contour>
    <contour>
      <point x="214" y="638" type="line"/>
      <point x="1052" y="638" type="line"/>
      <point x="1072" y="738" type="line"/>
      <point x="234" y="738" type="line"/>
    </contour>
  </outline>
</glyph>
<glyph name="section" format="2">
  <advance width="1224"/>
  <unicode hex="00A7"/>
  <outline>
    <contour>
      <point x="429" y="-450" type="curve" smooth="yes"/>
      <point x="681" y="-450"/>
      <point x="883" y="-304"/>
      <point x="883" y="-64" type="curve" smooth="yes"/>
      <point x="883" y="88"/>
      <point x="775" y="168"/>
      <point x="581" y="238" type="curve" smooth="yes"/>
      <point x="407" y="300"/>
      <point x="295" y="362"/>
      <point x="295" y="494" type="curve" smooth="yes"/>
      <point x="295" y="674"/>
      <point x="473" y="772"/>
      <point x="697" y="772" type="curve"/>
      <point x="719" y="860" type="line"/>
      <point x="467" y="892"/>
      <point x="189" y="726"/>
      <point x="189" y="470" type="curve" smooth="yes"/>
      <point x="189" y="318"/>
      <point x="295" y="220"/>
      <point x="497" y="142" type="curve" smooth="yes"/>
      <point x="693" y="66"/>
      <point x="771" y="16"/>
      <point x="771" y="-90" type="curve" smooth="yes"/>
      <point x="771" y="-250"/>
      <point x="633" y="-346"/>
      <point x="443" y="-346" type="curve" smooth="yes"/>
      <point x="301" y="-346"/>
      <point x="155" y="-296"/>
      <point x="69" y="-194" type="curve"/>
      <point x="41" y="-320" type="line"/>
      <point x="131" y="-394"/>
      <point x="275" y="-450"/>
    </contour>
    <contour>
      <point x="547" y="148" type="line"/>
      <point x="821" y="134"/>
      <point x="1065" y="296"/>
      <point x="1065" y="550" type="curve" smooth="yes"/>
      <point x="1065" y="704"/>
      <point x="943" y="792"/>
      <point x="755" y="860" type="curve" smooth="yes"/>
      <point x="575" y="924"/>
      <point x="469" y="968"/>
      <point x="469" y="1088" type="curve" smooth="yes"/>
      <point x="469" y="1236"/>
      <point x="593" y="1328"/>
      <point x="763" y="1328" type="curve" smooth="yes"/>
      <point x="913" y="1328"/>
      <point x="1045" y="1276"/>
      <point x="1127" y="1182" type="curve"/>
      <point x="1153" y="1306" type="line"/>
      <point x="1061" y="1388"/>
      <point x="939" y="1430"/>
      <point x="791" y="1430" type="curve" smooth="yes"/>
      <point x="559" y="1430"/>
      <point x="365" y="1280"/>
      <point x="365" y="1062" type="curve" smooth="yes"/>
      <point x="365" y="924"/>
      <point x="463" y="840"/>
      <point x="663" y="764" type="curve" smooth="yes"/>
      <point x="859" y="690"/>
      <point x="949" y="644"/>
      <point x="949" y="538" type="curve" smooth="yes"/>
      <point x="949" y="350"/>
      <point x="781" y="224"/>
      <point x="565" y="234" type="curve"/>
    </contour>
  </outline>
</glyph>
<glyph name="logicalnot" format="2">
  <advance width="1296"/>
  <unicode hex="00AC"/>
  <outline>
    <contour>
      <point x="1011" y="458" type="line"/>
      <point x="1111" y="458" type="line"/>
      <point x="1199" y="870" type="line"/>
      <point x="263" y="870" type="line"/>
      <point x="243" y="774" type="line"/>
      <point x="1079" y="774" type="line"/>
    </contour>
  </outline>
</glyph>
<glyph name="onesuperior" format="2">
  <advance width="614"/>
  <unicode hex="00B9"/>
  <outline>
    <contour>
      <point x="388" y="722" type="line"/>
      <point x="488" y="722" type="line"/>
      <point x="684" y="1652" type="line"/>
      <point x="676" y="1652" type="line"/>
      <point x="298" y="1524" type="line"/>
      <point x="278" y="1432" type="line"/>
      <point x="558" y="1522" type="line"/>
    </contour>
  </outline>
</glyph>
<glyph name="ordmasculine" format="2">
  <advance width="844"/>
  <unicode hex="00BA"/>
  <anchor x="492" y="722" name="bottom"/>
  <anchor x="852" y="1354" name="horn"/>
  <anchor x="612" y="722" name="ogonek"/>
  <anchor x="590" y="1354" name="top"/>
  <outline>
    <contour>
      <point x="508" y="702" type="curve" smooth="yes"/>
      <point x="714" y="702"/>
      <point x="892" y="872"/>
      <point x="892" y="1074" type="curve" smooth="yes"/>
      <point x="892" y="1238"/>
      <point x="764" y="1374"/>
      <point x="574" y="1374" type="curve" smooth="yes"/>
      <point x="368" y="1374"/>
      <point x="190" y="1202"/>
      <point x="190" y="1004" type="curve" smooth="yes"/>
      <point x="190" y="836"/>
      <point x="318" y="702"/>
    </contour>
    <contour>
      <point x="518" y="796" type="curve" smooth="yes"/>
      <point x="384" y="796"/>
      <point x="296" y="876"/>
      <point x="296" y="1004" type="curve" smooth="yes"/>
      <point x="296" y="1152"/>
      <point x="402" y="1280"/>
      <point x="564" y="1280" type="curve" smooth="yes"/>
      <point x="696" y="1280"/>
      <point x="786" y="1200"/>
      <point x="786" y="1072" type="curve" smooth="yes"/>
      <point x="786" y="922"/>
      <point x="678" y="796"/>
    </contour>
  </outline>
</glyph>
<glyph name="Thorn" format="2">
  <advance width="1239"/>
  <unicode hex="00DE"/>
  <outline>
    <contour>
      <point x="100" y="0" type="line"/>
      <point x="216" y="0" type="line"/>
      <point x="284" y="322" type="line"/>
      <point x="700" y="322" type="line" smooth="yes"/>
      <point x="998" y="322"/>
      <point x="1208" y="484"/>
      <point x="1208" y="762" type="curve" smooth="yes"/>
      <point x="1208" y="982"/>
      <point x="1034" y="1118"/>
      <point x="748" y="1118" type="curve" smooth="yes"/>
      <point x="452" y="1118" type="line"/>
      <point x="512" y="1400" type="line"/>
      <point x="396" y="1400" type="line"/>
    </contour>
    <contour>
      <point x="306" y="430" type="line"/>
      <point x="430" y="1010" type="line"/>
      <point x="750" y="1010" type="line" smooth="yes"/>
      <point x="972" y="1010"/>
      <point x="1090" y="908"/>
      <point x="1090" y="748" type="curve" smooth="yes"/>
      <point x="1090" y="554"/>
      <point x="944" y="430"/>
      <point x="726" y="430" type="curve" smooth="yes"/>
    </contour>
  </outline>
</glyph>
<glyph name="divide" format="2">
  <advance width="1296"/>
  <unicode hex="00F7"/>
  <outline>
    <contour>
      <point x="209" y="616" type="line"/>
      <point x="1143" y="616" type="line"/>
      <point x="1163" y="712" type="line"/>
      <point x="229" y="712" type="line"/>
    </contour>
    <contour>
      <point x="597" y="200" type="curve" smooth="yes"/>
      <point x="655" y="200"/>
      <point x="713" y="246"/>
      <point x="713" y="306" type="curve" smooth="yes"/>
      <point x="713" y="356"/>
      <point x="671" y="392"/>
      <point x="621" y="392" type="curve" smooth="yes"/>
      <point x="561" y="392"/>
      <point x="507" y="346"/>
      <point x="507" y="286" type="curve" smooth="yes"/>
      <point x="507" y="236"/>
      <point x="545" y="200"/>
    </contour>
    <contour>
      <point x="753" y="932" type="curve" smooth="yes"/>
      <point x="815" y="932"/>
      <point x="869" y="980"/>
      <point x="869" y="1038" type="curve" smooth="yes"/>
      <point x="869" y="1088"/>
      <point x="831" y="1124"/>
      <point x="777" y="1124" type="curve" smooth="yes"/>
      <point x="717" y="1124"/>
      <point x="663" y="1078"/>
      <point x="663" y="1016" type="curve" smooth="yes"/>
      <point x="663" y="968"/>
      <point x="701" y="932"/>
    </contour>
  </outline>
</glyph>
<glyph name="Lslash" format="2">
  <advance width="1096"/>
  <unicode hex="0141"/>
  <anchor x="528.0" y="0" name="bottom"/>
  <anchor x="565.384" y="1440" name="caron"/>
  <anchor x="497.29" y="1400" name="top"/>
  <outline>
    <contour>
      <point x="72" y="506" type="line"/>
      <point x="326" y="614" type="line"/>
      <point x="324" y="604" type="line"/>
      <point x="998" y="892" type="line"/>
      <point x="1020" y="990" type="line"/>
      <point x="344" y="702" type="line"/>
      <point x="346" y="712" type="line"/>
      <point x="94" y="604" type="line"/>
    </contour>
    <component base="L" yxScale="0.00235" xOffset="40"/>
  </outline>
</glyph>
<glyph name="eng" format="2">
  <advance width="1147"/>
  <unicode hex="014B"/>
  <outline>
    <contour>
      <point x="578" y="-450" type="curve" smooth="yes"/>
      <point x="712" y="-450"/>
      <point x="808" y="-364"/>
      <point x="844" y="-194" type="curve" smooth="yes"/>
      <point x="1022" y="646" type="line" smooth="yes"/>
      <point x="1064" y="832"/>
      <point x="920" y="990"/>
      <point x="702" y="990" type="curve" smooth="yes"/>
      <point x="586" y="990"/>
      <point x="456" y="942"/>
      <point x="354" y="820" type="curve"/>
      <point x="392" y="1000" type="line"/>
      <point x="250" y="858" type="line"/>
      <point x="68" y="0" type="line"/>
      <point x="180" y="0" type="line"/>
      <point x="302" y="570" type="line" smooth="yes"/>
      <point x="344" y="768"/>
      <point x="494" y="884"/>
      <point x="658" y="884" type="curve" smooth="yes"/>
      <point x="832" y="884"/>
      <point x="936" y="778"/>
      <point x="902" y="612" type="curve" smooth="yes"/>
      <point x="736" y="-174" type="line" smooth="yes"/>
      <point x="714" y="-286"/>
      <point x="670" y="-342"/>
      <point x="580" y="-342" type="curve" smooth="yes"/>
      <point x="528" y="-342"/>
      <point x="500" y="-332"/>
      <point x="462" y="-310" type="curve"/>
      <point x="406" y="-404" type="line"/>
      <point x="458" y="-432"/>
      <point x="520" y="-450"/>
    </contour>
  </outline>
</glyph>
<glyph name="Schwa" format="2">
  <advance width="1612"/>
  <unicode hex="018F"/>
  <guideline x="211" y="589" angle="78.0239"/>
  <outline>
    <contour>
      <point x="755" y="-30" type="curve" smooth="yes"/>
      <point x="1209" y="-30"/>
      <point x="1551" y="356"/>
      <point x="1551" y="816" type="curve" smooth="yes"/>
      <point x="1551" y="1180"/>
      <point x="1301" y="1430"/>
      <point x="897" y="1430" type="curve" smooth="yes"/>
      <point x="726" y="1430"/>
      <point x="563" y="1382"/>
      <point x="429" y="1308" type="curve"/>
      <point x="401" y="1178" type="line"/>
      <point x="527" y="1268"/>
      <point x="697" y="1318"/>
      <point x="875" y="1318" type="curve" smooth="yes"/>
      <point x="1225" y="1318"/>
      <point x="1431" y="1122"/>
      <point x="1431" y="812" type="curve" smooth="yes"/>
      <point x="1431" y="420"/>
      <point x="1167" y="82"/>
      <point x="771" y="82" type="curve" smooth="yes"/>
      <point x="455" y="82"/>
      <point x="215" y="338"/>
      <point x="285" y="638" type="curve"/>
      <point x="229" y="602" type="line"/>
      <point x="1439" y="602" type="line"/>
      <point x="1461" y="710" type="line"/>
      <point x="161" y="710" type="line"/>
      <point x="93" y="286"/>
      <point x="335" y="-30"/>
    </contour>
  </outline>
</glyph>
<glyph name="dieresiscomb" format="2">
  <unicode hex="0308"/>
  <anchor x="-648" y="960" name="_top"/>
  <anchor x="-580" y="1284" name="top"/>
  <outline>
    <contour>
      <point x="-780" y="1162" type="curve" smooth="yes"/>
      <point x="-726" y="1162"/>
      <point x="-672" y="1210"/>
      <point x="-672" y="1266" type="curve" smooth="yes"/>
      <point x="-672" y="1312"/>
      <point x="-708" y="1350"/>
      <point x="-756" y="1350" type="curve" smooth="yes"/>
      <point x="-810" y="1350"/>
      <point x="-864" y="1302"/>
      <point x="-864" y="1246" type="curve" smooth="yes"/>
      <point x="-864" y="1202"/>
      <point x="-828" y="1162"/>
    </contour>
    <contour>
      <point x="-416" y="1162" type="curve" smooth="yes"/>
      <point x="-362" y="1162"/>
      <point x="-308" y="1210"/>
      <point x="-308" y="1266" type="curve" smooth="yes"/>
      <point x="-308" y="1312"/>
      <point x="-344" y="1350"/>
      <point x="-392" y="1350" type="curve" smooth="yes"/>
      <point x="-446" y="1350"/>
      <point x="-500" y="1302"/>
      <point x="-500" y="1246" type="curve" smooth="yes"/>
      <point x="-500" y="1202"/>
      <point x="-464" y="1162"/>
    </contour>
  </outline>
</glyph>
<glyph name="hungarumlautcomb" format="2">
  <unicode hex="030B"/>
  <anchor x="-666" y="960" name="_top"/>
  <outline>
    <contour>
      <point x="-506" y="1170" type="line"/>
      <point x="-394" y="1170" type="line"/>
      <point x="-132" y="1504" type="line"/>
      <point x="-256" y="1504" type="line"/>
    </contour>
    <contour>
      <point x="-846" y="1170" type="line"/>
      <point x="-734" y="1170" type="line"/>
      <point x="-472" y="1504" type="line"/>
      <point x="-596" y="1504" type="line"/>
    </contour>
  </outline>
</glyph>
<glyph name="dblgravecomb" format="2">
  <unicode hex="030F"/>
  <anchor x="-666" y="960" name="_top"/>
  <outline>
    <contour>
      <point x="-502" y="1170" type="line"/>
      <point x="-398" y="1170" type="line"/>
      <point x="-512" y="1504" type="line"/>
      <point x="-628" y="1504" type="line"/>
    </contour>
    <contour>
      <point x="-840" y="1170" type="line"/>
      <point x="-736" y="1170" type="line"/>
      <point x="-854" y="1504" type="line"/>
      <point x="-970" y="1504" type="line"/>
    </contour>
  </outline>
</glyph>
<glyph name="horncomb" format="2">
  <unicode hex="031B"/>
  <anchor x="-206" y="960" name="_horn"/>
  <outline>
    <contour>
      <point x="-168" y="836" type="curve" smooth="yes"/>
      <point x="-36" y="836"/>
      <point x="38" y="918"/>
      <point x="38" y="1014" type="curve" smooth="yes"/>
      <point x="38" y="1056"/>
      <point x="24" y="1101"/>
      <point x="-6" y="1146" type="curve"/>
      <point x="-111" y="1146" type="line"/>
      <point x="-80" y="1093"/>
      <point x="-68" y="1041"/>
      <point x="-70" y="1002" type="curve" smooth="yes"/>
      <point x="-70" y="942"/>
      <point x="-120" y="916"/>
      <point x="-188" y="920" type="curve" smooth="yes"/>
      <point x="-270" y="925"/>
      <point x="-436" y="990"/>
      <point x="-618" y="990" type="curve"/>
      <point x="-632" y="922" type="line"/>
      <point x="-430" y="930"/>
      <point x="-278" y="836"/>
    </contour>
  </outline>
</glyph>
<glyph name="zeta" format="2">
  <advance width="886"/>
  <unicode hex="03B6"/>
  <outline>
    <contour>
      <point x="575" y="-420" type="line"/>
      <point x="665" y="-322"/>
      <point x="712" y="-223"/>
      <point x="712" y="-134" type="curve" smooth="yes"/>
      <point x="712" y="140"/>
      <point x="214" y="151"/>
      <point x="214" y="455" type="curve" smooth="yes"/>
      <point x="214" y="750"/>
      <point x="698" y="1100"/>
      <point x="1044" y="1344" type="curve"/>
      <point x="1066" y="1440" type="line"/>
      <point x="334" y="1440" type="line"/>
      <point x="288" y="1336" type="line"/>
      <point x="888" y="1336" type="line"/>
      <point x="530" y="1087"/>
      <point x="90" y="763"/>
      <point x="90" y="442" type="curve" smooth="yes"/>
      <point x="90" y="80"/>
      <point x="593" y="46"/>
      <point x="593" y="-168" type="curve" smooth="yes"/>
      <point x="593" y="-229"/>
      <point x="549" y="-306"/>
      <point x="442" y="-420" type="curve"/>
    </contour>
  </outline>
</glyph>
<glyph name="nu" format="2">
  <advance width="1005"/>
  <unicode hex="03BD"/>
  <outline>
    <contour>
      <point x="298" y="0" type="line"/>
      <point x="414" y="0" type="line"/>
      <point x="658" y="244"/>
      <point x="874" y="562"/>
      <point x="1030" y="960" type="curve"/>
      <point x="898" y="960" type="line"/>
      <point x="756" y="578"/>
      <point x="554" y="294"/>
      <point x="366" y="96" type="curve"/>
      <point x="396" y="96" type="line"/>
      <point x="268" y="960" type="line"/>
      <point x="144" y="960" type="line"/>
    </contour>
  </outline>
</glyph>
<glyph name="phi" format="2">
  <advance width="1325"/>
  <unicode hex="03C6"/>
  <guideline x="379" y="-420" angle="90"/>
  <outline>
    <contour>
      <point x="379" y="-420" type="line"/>
      <point x="491" y="-420" type="line"/>
      <point x="709" y="620" type="line" smooth="yes"/>
      <point x="749" y="812"/>
      <point x="806" y="884"/>
      <point x="937" y="884" type="curve" smooth="yes"/>
      <point x="1052" y="884"/>
      <point x="1137" y="793"/>
      <point x="1137" y="608" type="curve" smooth="yes"/>
      <point x="1137" y="315"/>
      <point x="937" y="95"/>
      <point x="609" y="95" type="curve" smooth="yes"/>
      <point x="374" y="95"/>
      <point x="210" y="214"/>
      <point x="210" y="462" type="curve" smooth="yes"/>
      <point x="210" y="653"/>
      <point x="313" y="836"/>
      <point x="472" y="960" type="curve"/>
      <point x="327" y="960" type="line"/>
      <point x="182" y="830"/>
      <point x="88" y="652"/>
      <point x="88" y="453" type="curve" smooth="yes"/>
      <point x="88" y="153"/>
      <point x="292" y="-10"/>
      <point x="592" y="-10" type="curve" smooth="yes"/>
      <point x="985" y="-10"/>
      <point x="1259" y="261"/>
      <point x="1259" y="616" type="curve" smooth="yes"/>
      <point x="1259" y="859"/>
      <point x="1128" y="990"/>
      <point x="951" y="990" type="curve" smooth="yes"/>
      <point x="765" y="990"/>
      <point x="650" y="871"/>
      <point x="598" y="625" type="curve" smooth="yes"/>
    </contour>
  </outline>
</glyph>
<glyph name="chi" format="2">
  <advance width="1042"/>
  <unicode hex="03C7"/>
  <outline>
    <contour>
      <point x="-119" y="-420" type="line"/>
      <point x="27" y="-420" type="line"/>
      <point x="527" y="260" type="line"/>
      <point x="501" y="262" type="line"/>
      <point x="685" y="-420" type="line"/>
      <point x="809" y="-420" type="line"/>
      <point x="591" y="364" type="line"/>
      <point x="571" y="276" type="line"/>
      <point x="1073" y="960" type="line"/>
      <point x="929" y="960" type="line"/>
      <point x="525" y="398" type="line"/>
      <point x="559" y="398" type="line"/>
      <point x="447" y="822" type="line" smooth="yes"/>
      <point x="408" y="968"/>
      <point x="315" y="1010"/>
      <point x="159" y="980" type="curve"/>
      <point x="151" y="880" type="line"/>
      <point x="281" y="910"/>
      <point x="323" y="858"/>
      <point x="351" y="748" type="curve" smooth="yes"/>
      <point x="469" y="290" type="line"/>
      <point x="489" y="380" type="line"/>
    </contour>
  </outline>
</glyph>
<glyph name="omega" format="2">
  <advance width="1542"/>
  <unicode hex="03C9"/>
  <anchor x="670" y="0" name="bottom"/>
  <anchor x="872" y="960" name="top"/>
  <outline>
    <contour>
      <point x="389" y="-30" type="curve" smooth="yes"/>
      <point x="507" y="-30"/>
      <point x="630" y="36"/>
      <point x="706" y="183" type="curve"/>
      <point x="725" y="58"/>
      <point x="850" y="-30"/>
      <point x="987" y="-30" type="curve" smooth="yes"/>
      <point x="1265" y="-30"/>
      <point x="1435" y="288"/>
      <point x="1436" y="626" type="curve" smooth="yes"/>
      <point x="1436" y="737"/>
      <point x="1417" y="848"/>
      <point x="1380" y="960" type="curve"/>
      <point x="1248" y="960" type="line"/>
      <point x="1293" y="855"/>
      <point x="1317" y="746"/>
      <point x="1317" y="631" type="curve" smooth="yes"/>
      <point x="1316" y="364"/>
      <point x="1208" y="80"/>
      <point x="988" y="80" type="curve" smooth="yes"/>
      <point x="807" y="80"/>
      <point x="765" y="218"/>
      <point x="816" y="419" type="curve" smooth="yes"/>
      <point x="874" y="694" type="line"/>
      <point x="754" y="694" type="line"/>
      <point x="696" y="419" type="line" smooth="yes"/>
      <point x="649" y="205"/>
      <point x="571" y="81"/>
      <point x="422" y="81" type="curve" smooth="yes"/>
      <point x="281" y="81"/>
      <point x="220" y="184"/>
      <point x="221" y="335" type="curve" smooth="yes"/>
      <point x="221" y="549"/>
      <point x="335" y="798"/>
      <point x="498" y="960" type="curve"/>
      <point x="366" y="960" type="line"/>
      <point x="208" y="805"/>
      <point x="100" y="549"/>
      <point x="100" y="334" type="curve" smooth="yes"/>
      <point x="99" y="125"/>
      <point x="198" y="-30"/>
    </contour>
  </outline>
</glyph>
<glyph name="El-cy" format="2">
  <advance width="1478"/>
  <unicode hex="041B"/>
  <guideline x="-10" y="44" angle="78.1113"/>
  <guideline x="303" y="-171" angle="257.9659"/>
  <outline>
    <contour>
      <point x="-4" y="-20" type="line"/>
      <point x="194" y="-44"/>
      <point x="374" y="28"/>
      <point x="428" y="280" type="curve" smooth="yes"/>
      <point x="644" y="1292" type="line"/>
      <point x="1334" y="1292" type="line"/>
      <point x="1060" y="0" type="line"/>
      <point x="1176" y="0" type="line"/>
      <point x="1472" y="1400" type="line"/>
      <point x="550" y="1400" type="line"/>
      <point x="316" y="300" type="line" smooth="yes"/>
      <point x="278" y="120"/>
      <point x="166" y="74"/>
      <point x="20" y="88" type="curve"/>
    </contour>
  </outline>
</glyph>
<glyph name="Softsign-cy" format="2">
  <advance width="1219"/>
  <unicode hex="042C"/>
  <anchor x="390" y="1090" name="bar"/>
  <outline>
    <contour>
      <point x="100" y="0" type="line"/>
      <point x="602" y="0" type="line" smooth="yes"/>
      <point x="908" y="0"/>
      <point x="1108" y="180"/>
      <point x="1110" y="434" type="curve" smooth="yes"/>
      <point x="1112" y="656"/>
      <point x="944" y="796"/>
      <point x="666" y="796" type="curve" smooth="yes"/>
      <point x="384" y="796" type="line"/>
      <point x="514" y="1400" type="line"/>
      <point x="396" y="1400" type="line"/>
    </contour>
    <contour>
      <point x="238" y="108" type="line"/>
      <point x="362" y="688" type="line"/>
      <point x="652" y="688" type="line" smooth="yes"/>
      <point x="888" y="688"/>
      <point x="998" y="596"/>
      <point x="996" y="420" type="curve" smooth="yes"/>
      <point x="994" y="216"/>
      <point x="852" y="108"/>
      <point x="606" y="108" type="curve" smooth="yes"/>
    </contour>
  </outline>
</glyph>
<glyph name="de-cy" format="2">
  <advance width="1262"/>
  <unicode hex="0434"/>
  <guideline x="290" y="566" angle="258.0917"/>
  <outline>
    <contour>
      <point x="798" y="0" type="line"/>
      <point x="910" y="0" type="line"/>
      <point x="1114" y="960" type="line"/>
      <point x="373" y="960" type="line"/>
      <point x="228" y="272" type="line" smooth="yes"/>
      <point x="197" y="123"/>
      <point x="100" y="86"/>
      <point x="-20" y="98" type="curve"/>
      <point x="-36" y="20" type="line"/>
      <point x="134" y="4"/>
      <point x="296" y="56"/>
      <point x="334" y="240" type="curve" smooth="yes"/>
      <point x="464" y="856" type="line"/>
      <point x="980" y="856" type="line"/>
    </contour>
    <contour>
      <point x="-118" y="-364" type="line"/>
      <point x="12" y="-236" type="line"/>
      <point x="62" y="0" type="line"/>
      <point x="1002" y="0" type="line"/>
      <point x="926" y="-364" type="line"/>
      <point x="1056" y="-236" type="line"/>
      <point x="1128" y="104" type="line"/>
      <point x="98" y="104" type="line"/>
      <point x="78" y="84" type="line"/>
      <point x="-20" y="98" type="line"/>
    </contour>
  </outline>
</glyph>
<glyph name="ze-cy" format="2">
  <advance width="988"/>
  <unicode hex="0437"/>
  <anchor x="362" y="0" name="bottom"/>
  <anchor x="554" y="960" name="top"/>
  <outline>
    <contour>
      <point x="406" y="-20" type="curve" smooth="yes"/>
      <point x="640" y="-20"/>
      <point x="840" y="86"/>
      <point x="840" y="284" type="curve" smooth="yes"/>
      <point x="840" y="382"/>
      <point x="774" y="458"/>
      <point x="650" y="498" type="curve"/>
      <point x="804" y="518"/>
      <point x="898" y="626"/>
      <point x="898" y="738" type="curve" smooth="yes"/>
      <point x="898" y="918"/>
      <point x="706" y="990"/>
      <point x="514" y="990" type="curve" smooth="yes"/>
      <point x="400" y="990"/>
      <point x="288" y="968"/>
      <point x="204" y="924" type="curve"/>
      <point x="180" y="806" type="line"/>
      <point x="276" y="862"/>
      <point x="390" y="886"/>
      <point x="514" y="886" type="curve" smooth="yes"/>
      <point x="644" y="886"/>
      <point x="784" y="846"/>
      <point x="784" y="730" type="curve" smooth="yes"/>
      <point x="784" y="588"/>
      <point x="648" y="562"/>
      <point x="420" y="562" type="curve" smooth="yes"/>
      <point x="256" y="562" type="line"/>
      <point x="210" y="458" type="line"/>
      <point x="400" y="458" type="line" smooth="yes"/>
      <point x="612" y="458"/>
      <point x="728" y="402"/>
      <point x="728" y="278" type="curve" smooth="yes"/>
      <point x="728" y="148"/>
      <point x="600" y="84"/>
      <point x="426" y="84" type="curve" smooth="yes"/>
      <point x="288" y="84"/>
      <point x="150" y="118"/>
      <point x="56" y="202" type="curve"/>
      <point x="32" y="86" type="line"/>
      <point x="132" y="12"/>
      <point x="270" y="-20"/>
    </contour>
  </outline>
</glyph>
<glyph name="ii-cy" format="2">
  <advance width="1178"/>
  <unicode hex="0438"/>
  <anchor x="488" y="0" name="bottom"/>
  <anchor x="692" y="960" name="top"/>
  <outline>
    <contour>
      <point x="72" y="0" type="line"/>
      <point x="156" y="0" type="line"/>
      <point x="954" y="776" type="line"/>
      <point x="794" y="0" type="line"/>
      <point x="906" y="0" type="line"/>
      <point x="1106" y="960" type="line"/>
      <point x="1016" y="960" type="line"/>
      <point x="226" y="204" type="line"/>
      <point x="392" y="1000" type="line"/>
      <point x="250" y="858" type="line"/>
    </contour>
  </outline>
</glyph>
<glyph name="ka-cy" format="2">
  <advance width="1026"/>
  <unicode hex="043A"/>
  <anchor x="784" y="0" name="descender"/>
  <anchor x="588" y="960" name="top"/>
  <outline>
    <contour>
      <point x="728" y="0" type="line"/>
      <point x="864" y="0" type="line"/>
      <point x="616" y="514" type="line"/>
      <point x="996" y="960" type="line"/>
      <point x="870" y="960" type="line"/>
      <point x="492" y="518" type="line"/>
    </contour>
    <contour>
      <point x="68" y="0" type="line"/>
      <point x="180" y="0" type="line"/>
      <point x="278" y="460" type="line"/>
      <point x="540" y="460" type="line"/>
      <point x="562" y="564" type="line"/>
      <point x="300" y="564" type="line"/>
      <point x="392" y="1000" type="line"/>
      <point x="250" y="858" type="line"/>
    </contour>
  </outline>
</glyph>
<glyph name="em-cy" format="2">
  <advance width="1436"/>
  <unicode hex="043C"/>
  <outline>
    <contour>
      <point x="70" y="0" type="line"/>
      <point x="170" y="0" type="line"/>
      <point x="344" y="820" type="line"/>
      <point x="322" y="816" type="line"/>
      <point x="616" y="222" type="line"/>
      <point x="714" y="222" type="line"/>
      <point x="1234" y="776" type="line"/>
      <point x="1220" y="790" type="line"/>
      <point x="1052" y="0" type="line"/>
      <point x="1164" y="0" type="line"/>
      <point x="1368" y="960" type="line"/>
      <point x="1264" y="960" type="line"/>
      <point x="662" y="308" type="line"/>
      <point x="708" y="298" type="line"/>
      <point x="384" y="960" type="line"/>
      <point x="372" y="960" type="line"/>
      <point x="272" y="960" type="line"/>
    </contour>
  </outline>
</glyph>
<glyph name="che-cy" format="2">
  <advance width="1036"/>
  <unicode hex="0447"/>
  <anchor x="468" y="450" name="center"/>
  <anchor x="764" y="0" name="descender"/>
  <anchor x="652" y="0" name="descender_alt"/>
  <anchor x="576" y="960" name="top"/>
  <outline>
    <contour>
      <point x="652" y="0" type="line"/>
      <point x="764" y="0" type="line"/>
      <point x="976" y="1000" type="line"/>
      <point x="834" y="858" type="line"/>
      <point x="762" y="518" type="line"/>
      <point x="666" y="496"/>
      <point x="586" y="488"/>
      <point x="494" y="488" type="curve" smooth="yes"/>
      <point x="292" y="488"/>
      <point x="208" y="560"/>
      <point x="246" y="740" type="curve" smooth="yes"/>
      <point x="302" y="1000" type="line"/>
      <point x="160" y="858" type="line"/>
      <point x="132" y="722" type="line" smooth="yes"/>
      <point x="82" y="478"/>
      <point x="204" y="380"/>
      <point x="468" y="380" type="curve" smooth="yes"/>
      <point x="570" y="380"/>
      <point x="656" y="396"/>
      <point x="742" y="420" type="curve"/>
    </contour>
  </outline>
</glyph>
<glyph name="ia-cy" format="2">
  <advance width="1064"/>
  <unicode hex="044F"/>
  <anchor x="644" y="960" name="top"/>
  <outline>
    <contour>
      <point x="8" y="0" type="line"/>
      <point x="152" y="0" type="line"/>
      <point x="570" y="390" type="line"/>
      <point x="788" y="390" type="line"/>
      <point x="810" y="492" type="line"/>
      <point x="532" y="492" type="line" smooth="yes"/>
      <point x="394" y="492"/>
      <point x="312" y="552"/>
      <point x="312" y="656" type="curve" smooth="yes"/>
      <point x="312" y="782"/>
      <point x="416" y="856"/>
      <point x="574" y="856" type="curve" smooth="yes"/>
      <point x="862" y="856" type="line"/>
      <point x="680" y="0" type="line"/>
      <point x="792" y="0" type="line"/>
      <point x="996" y="960" type="line"/>
      <point x="584" y="960" type="line" smooth="yes"/>
      <point x="368" y="960"/>
      <point x="194" y="852"/>
      <point x="192" y="650" type="curve" smooth="yes"/>
      <point x="190" y="494"/>
      <point x="332" y="388"/>
      <point x="512" y="390" type="curve"/>
      <point x="466" y="428" type="line"/>
    </contour>
  </outline>
</glyph>
<glyph name="lje-cy" format="2">
  <advance width="1682"/>
  <unicode hex="0459"/>
  <guideline x="289" y="559" angle="78.1017"/>
  <outline>
    <contour>
      <point x="-46" y="-20" type="line"/>
      <point x="126" y="-40"/>
      <point x="288" y="22"/>
      <point x="334" y="240" type="curve" smooth="yes"/>
      <point x="464" y="856" type="line"/>
      <point x="920" y="856" type="line"/>
      <point x="1056" y="960" type="line"/>
      <point x="374" y="960" type="line"/>
      <point x="226" y="260" type="line" smooth="yes"/>
      <point x="194" y="110"/>
      <point x="98" y="72"/>
      <point x="-24" y="84" type="curve"/>
    </contour>
    <contour>
      <point x="740" y="0" type="line"/>
      <point x="1160" y="0" type="line" smooth="yes"/>
      <point x="1378" y="0"/>
      <point x="1552" y="126"/>
      <point x="1552" y="324" type="curve" smooth="yes"/>
      <point x="1552" y="514"/>
      <point x="1428" y="616"/>
      <point x="1214" y="616" type="curve" smooth="yes"/>
      <point x="956" y="616" type="line"/>
      <point x="932" y="512" type="line"/>
      <point x="1202" y="512" type="line" smooth="yes"/>
      <point x="1362" y="512"/>
      <point x="1432" y="450"/>
      <point x="1432" y="324" type="curve" smooth="yes"/>
      <point x="1432" y="190"/>
      <point x="1330" y="106"/>
      <point x="1166" y="106" type="curve" smooth="yes"/>
      <point x="874" y="106" type="line"/>
      <point x="1056" y="960" type="line"/>
      <point x="944" y="960" type="line"/>
    </contour>
  </outline>
</glyph>
<glyph name="Yusbig-cy" format="2">
  <advance width="1910"/>
  <unicode hex="046A"/>
  <guideline x="353" y="1349" angle="246.8858"/>
  <guideline x="498" y="1020" angle="119.299"/>
  <anchor x="1630" y="0" name="descender"/>
  <anchor x="1150" y="1400" name="top"/>
  <outline>
    <contour>
      <point x="-24" y="0" type="line"/>
      <point x="128" y="0" type="line"/>
      <point x="794" y="738" type="line"/>
      <point x="482" y="1292" type="line"/>
      <point x="1766" y="1292" type="line"/>
      <point x="1222" y="740" type="line"/>
      <point x="1586" y="0" type="line"/>
      <point x="1730" y="0" type="line"/>
      <point x="1362" y="734" type="line"/>
      <point x="1916" y="1298" type="line"/>
      <point x="1936" y="1400" type="line"/>
      <point x="364" y="1400" type="line"/>
      <point x="342" y="1298" type="line"/>
      <point x="654" y="742" type="line"/>
    </contour>
    <contour>
      <point x="796" y="0" type="line"/>
      <point x="912" y="0" type="line"/>
      <point x="1058" y="698" type="line"/>
      <point x="1288" y="698" type="line"/>
      <point x="1312" y="806" type="line"/>
      <point x="738" y="806" type="line"/>
      <point x="714" y="698" type="line"/>
      <point x="942" y="698" type="line"/>
    </contour>
  </outline>
</glyph>
<glyph name="Gheupturn-cy" format="2">
  <advance width="1000"/>
  <unicode hex="0490"/>
  <anchor x="486" y="722" name="bar"/>
  <anchor x="216" y="0" name="descender"/>
  <anchor x="760" y="1400" name="top"/>
  <outline>
    <contour>
      <point x="994" y="1292" type="line"/>
      <point x="1102" y="1292" type="line"/>
      <point x="1214" y="1828" type="line"/>
      <point x="1078" y="1692" type="line"/>
    </contour>
    <component base="Ge-cy"/>
  </outline>
</glyph>
<glyph name="Enghe-cy" format="2">
  <advance width="1920"/>
  <unicode hex="04A4"/>
  <anchor x="1136" y="0" name="descender"/>
  <anchor x="914" y="1400" name="top"/>
  <anchor x="316" y="1400" name="topleft"/>
  <outline>
    <contour>
      <point x="1410" y="1292" type="line"/>
      <point x="2022" y="1292" type="line"/>
      <point x="2044" y="1400" type="line"/>
      <point x="1316" y="1400" type="line"/>
    </contour>
    <component base="En-cy"/>
  </outline>
</glyph>
<glyph name="enghe-cy" format="2">
  <advance width="1542"/>
  <unicode hex="04A5"/>
  <guideline x="873" y="429" angle="78.0239"/>
  <outline>
    <contour>
      <point x="68" y="0" type="line"/>
      <point x="180" y="0" type="line"/>
      <point x="276" y="460" type="line"/>
      <point x="880" y="460" type="line"/>
      <point x="782" y="0" type="line"/>
      <point x="894" y="0" type="line"/>
      <point x="1074" y="856" type="line"/>
      <point x="1564" y="856" type="line"/>
      <point x="1586" y="960" type="line"/>
      <point x="986" y="960" type="line"/>
      <point x="902" y="564" type="line"/>
      <point x="298" y="564" type="line"/>
      <point x="392" y="1000" type="line"/>
      <point x="250" y="858" type="line"/>
    </contour>
  </outline>
</glyph>
<glyph name="Germandbls" format="2">
  <advance width="1391"/>
  <unicode hex="1E9E"/>
  <outline>
    <contour>
      <point x="831" y="-29" type="curve" smooth="yes"/>
      <point x="1067" y="-29"/>
      <point x="1275" y="96"/>
      <point x="1275" y="290" type="curve" smooth="yes"/>
      <point x="1275" y="540"/>
      <point x="943" y="602"/>
      <point x="943" y="792" type="curve" smooth="yes"/>
      <point x="943" y="926"/>
      <point x="1101" y="1048"/>
      <point x="1309" y="1218" type="curve"/>
      <point x="1329" y="1298" type="line"/>
      <point x="1189" y="1386"/>
      <point x="1051" y="1430"/>
      <point x="883" y="1430" type="curve" smooth="yes"/>
      <point x="593" y="1430"/>
      <point x="357" y="1226"/>
      <point x="289" y="908" type="curve" smooth="yes"/>
      <point x="97" y="0" type="line"/>
      <point x="213" y="0" type="line"/>
      <point x="405" y="908" type="line" smooth="yes"/>
      <point x="461" y="1172"/>
      <point x="631" y="1320"/>
      <point x="865" y="1320" type="curve" smooth="yes"/>
      <point x="1015" y="1320"/>
      <point x="1077" y="1290"/>
      <point x="1177" y="1242" type="curve"/>
      <point x="931" y="1030"/>
      <point x="811" y="942"/>
      <point x="811" y="776" type="curve" smooth="yes"/>
      <point x="811" y="522"/>
      <point x="1145" y="494"/>
      <point x="1145" y="284" type="curve" smooth="yes"/>
      <point x="1145" y="154"/>
      <point x="1021" y="76"/>
      <point x="855" y="76" type="curve" smooth="yes"/>
      <point x="751" y="76"/>
      <point x="657" y="96"/>
      <point x="579" y="126" type="curve"/>
      <point x="555" y="10" type="line"/>
      <point x="636" y="-11"/>
      <point x="748" y="-29"/>
    </contour>
  </outline>
</glyph>
<glyph name="quoteleft" format="2">
  <advance width="504"/>
  <unicode hex="2018"/>
  <outline>
    <contour>
      <point x="385" y="996" type="curve" smooth="yes"/>
      <point x="446" y="996"/>
      <point x="494" y="1038"/>
      <point x="494" y="1100" type="curve" smooth="yes"/>
      <point x="494" y="1157"/>
      <point x="435" y="1197"/>
      <point x="382" y="1186" type="curve"/>
      <point x="400" y="1262"/>
      <point x="486" y="1330"/>
      <point x="591" y="1332" type="curve"/>
      <point x="608" y="1410" type="line"/>
      <point x="431" y="1405"/>
      <point x="277" y="1273"/>
      <point x="277" y="1109" type="curve" smooth="yes"/>
      <point x="277" y="1043"/>
      <point x="318" y="996"/>
    </contour>
  </outline>
</glyph>
<glyph name="daggerdbl" format="2">
  <advance width="1212"/>
  <unicode hex="2021"/>
  <outline>
    <contour>
      <point x="451" y="-12" type="line"/>
      <point x="551" y="-12" type="line"/>
      <point x="641" y="404" type="line"/>
      <point x="1059" y="404" type="line"/>
      <point x="1079" y="502" type="line"/>
      <point x="661" y="502" type="line"/>
      <point x="785" y="1086" type="line"/>
      <point x="1203" y="1086" type="line"/>
      <point x="1223" y="1184" type="line"/>
      <point x="805" y="1184" type="line"/>
      <point x="895" y="1600" type="line"/>
      <point x="795" y="1600" type="line"/>
      <point x="705" y="1184" type="line"/>
      <point x="287" y="1184" type="line"/>
      <point x="267" y="1086" type="line"/>
      <point x="685" y="1086" type="line"/>
      <point x="561" y="502" type="line"/>
      <point x="143" y="502" type="line"/>
      <point x="123" y="404" type="line"/>
      <point x="541" y="404" type="line"/>
    </contour>
  </outline>
</glyph>
<glyph name="franc" format="2">
  <advance width="1296"/>
  <unicode hex="20A3"/>
  <outline>
    <contour>
      <point x="92" y="258" type="line"/>
      <point x="644" y="258" type="line"/>
      <point x="666" y="358" type="line"/>
      <point x="114" y="358" type="line"/>
    </contour>
    <component base="_part.franc" yxScale="0.00293" xOffset="182"/>
  </outline>
</glyph>
<glyph name="peseta" format="2">
  <advance width="1296"/>
  <unicode hex="20A7"/>
  <outline>
    <contour>
      <point x="104" y="0" type="line"/>
      <point x="218" y="0" type="line"/>
      <point x="346" y="606" type="line"/>
      <point x="662" y="606" type="line" smooth="yes"/>
      <point x="964" y="606"/>
      <point x="1164" y="768"/>
      <point x="1164" y="1052" type="curve" smooth="yes"/>
      <point x="1164" y="1266"/>
      <point x="1010" y="1400"/>
      <point x="792" y="1400" type="curve" smooth="yes"/>
      <point x="400" y="1400" type="line"/>
    </contour>
    <contour>
      <point x="368" y="710" type="line"/>
      <point x="492" y="1296" type="line"/>
      <point x="780" y="1296" type="line" smooth="yes"/>
      <point x="946" y="1296"/>
      <point x="1048" y="1196"/>
      <point x="1048" y="1038" type="curve" smooth="yes"/>
      <point x="1048" y="836"/>
      <point x="916" y="710"/>
      <point x="694" y="710" type="curve" smooth="yes"/>
    </contour>
    <component base="_part.currencyBarHorizontalSingle" yxScale="0.00235" xOffset="62" yOffset="310"/>
  </outline>
</glyph>
<glyph name="euro" format="2">
  <advance width="1296"/>
  <unicode hex="20AC"/>
  <guideline x="632" y="584" angle="78.0239"/>
  <guideline x="568" y="97" angle="78.0239"/>
  <outline>
    <contour>
      <point x="784" y="-30" type="curve" smooth="yes"/>
      <point x="908" y="-30"/>
      <point x="1020" y="0"/>
      <point x="1130" y="70" type="curve"/>
      <point x="1156" y="194" type="line"/>
      <point x="1048" y="114"/>
      <point x="930" y="82"/>
      <point x="812" y="82" type="curve" smooth="yes"/>
      <point x="554" y="82"/>
      <point x="390" y="234"/>
      <point x="372" y="496" type="curve"/>
      <point x="884" y="496" type="line"/>
      <point x="906" y="596" type="line"/>
      <point x="370" y="596" type="line"/>
      <point x="376" y="672"/>
      <point x="380" y="728"/>
      <point x="400" y="804" type="curve"/>
      <point x="950" y="804" type="line"/>
      <point x="972" y="904" type="line"/>
      <point x="432" y="904" type="line"/>
      <point x="530" y="1164"/>
      <point x="716" y="1320"/>
      <point x="946" y="1320" type="curve" smooth="yes"/>
      <point x="1100" y="1320"/>
      <point x="1210" y="1264"/>
      <point x="1284" y="1168" type="curve"/>
      <point x="1310" y="1290" type="line"/>
      <point x="1230" y="1380"/>
      <point x="1112" y="1430"/>
      <point x="960" y="1430" type="curve" smooth="yes"/>
      <point x="688" y="1430"/>
      <point x="454" y="1216"/>
      <point x="334" y="904" type="curve"/>
      <point x="152" y="904" type="line"/>
      <point x="130" y="804" type="line"/>
      <point x="302" y="804" type="line"/>
      <point x="284" y="738"/>
      <point x="274" y="672"/>
      <point x="270" y="596" type="curve"/>
      <point x="86" y="596" type="line"/>
      <point x="64" y="496" type="line"/>
      <point x="268" y="496" type="line"/>
      <point x="274" y="180"/>
      <point x="472" y="-30"/>
    </contour>
  </outline>
</glyph>
<glyph name="tugrik" format="2">
  <advance width="1296"/>
  <unicode hex="20AE"/>
  <anchor x="700" y="722" name="bar"/>
  <anchor x="548" y="0" name="bottom"/>
  <anchor x="844" y="1400" name="top"/>
  <outline>
    <contour>
      <point x="258" y="584" type="line"/>
      <point x="716" y="804" type="line"/>
      <point x="714" y="790" type="line"/>
      <point x="1172" y="1010" type="line"/>
      <point x="1192" y="1112" type="line"/>
      <point x="734" y="892" type="line"/>
      <point x="736" y="906" type="line"/>
      <point x="278" y="686" type="line"/>
    </contour>
    <contour>
      <point x="196" y="286" type="line"/>
      <point x="654" y="506" type="line"/>
      <point x="652" y="492" type="line"/>
      <point x="1110" y="712" type="line"/>
      <point x="1130" y="814" type="line"/>
      <point x="672" y="594" type="line"/>
      <point x="674" y="608" type="line"/>
      <point x="216" y="388" type="line"/>
    </contour>
    <component base="T" xOffset="106"/>
  </outline>
</glyph>
<glyph name="ruble" format="2">
  <advance width="1296"/>
  <unicode hex="20BD"/>
  <guideline x="602" y="190" angle="270"/>
  <outline>
    <contour>
      <point x="118" y="370" type="line"/>
      <point x="1134" y="370" type="line"/>
      <point x="1156" y="470" type="line"/>
      <point x="140" y="470" type="line"/>
    </contour>
    <contour>
      <point x="324" y="0" type="line"/>
      <point x="438" y="0" type="line"/>
      <point x="712" y="1296" type="line"/>
      <point x="920" y="1296" type="line" smooth="yes"/>
      <point x="1098" y="1296"/>
      <point x="1178" y="1214"/>
      <point x="1178" y="1082" type="curve" smooth="yes"/>
      <point x="1178" y="866"/>
      <point x="1038" y="778"/>
      <point x="808" y="778" type="curve" smooth="yes"/>
      <point x="204" y="778" type="line"/>
      <point x="184" y="678" type="line"/>
      <point x="778" y="678" type="line" smooth="yes"/>
      <point x="1098" y="678"/>
      <point x="1294" y="802"/>
      <point x="1294" y="1092" type="curve" smooth="yes"/>
      <point x="1294" y="1282"/>
      <point x="1162" y="1400"/>
      <point x="932" y="1400" type="curve" smooth="yes"/>
      <point x="620" y="1400" type="line"/>
    </contour>
  </outline>
</glyph>
<glyph name="downArrow" format="2">
  <advance width="1800"/>
  <unicode hex="2193"/>
  <outline>
    <contour>
      <point x="994" y="-162" type="line"/>
      <point x="1556" y="400" type="line"/>
      <point x="1488" y="468" type="line"/>
      <point x="1044" y="22" type="line"/>
      <point x="1042" y="1520" type="line"/>
      <point x="946" y="1520" type="line"/>
      <point x="944" y="22" type="line"/>
      <point x="500" y="468" type="line"/>
      <point x="432" y="400" type="line"/>
    </contour>
  </outline>
</glyph>
<glyph name="northEastArrow" format="2">
  <advance width="1800"/>
  <unicode hex="2197"/>
  <outline>
    <contour>
      <point x="316" y="8" type="line"/>
      <point x="1544" y="1236" type="line"/>
      <point x="1544" y="606" type="line"/>
      <point x="1638" y="606" type="line"/>
      <point x="1640" y="1400" type="line"/>
      <point x="846" y="1400" type="line"/>
      <point x="846" y="1304" type="line"/>
      <point x="1476" y="1304" type="line"/>
      <point x="248" y="76" type="line"/>
    </contour>
  </outline>
</glyph>
<glyph name="leftanglebracket-math" format="2">
  <advance width="1296"/>
  <unicode hex="27E8"/>
  <guideline x="529" y="814" angle="55.5267"/>
  <outline>
    <contour>
      <point x="832" y="-440" type="line"/>
      <point x="862" y="-288" type="line"/>
      <point x="404" y="658" type="line"/>
      <point x="1266" y="1602" type="line"/>
      <point x="1300" y="1768" type="line"/>
      <point x="294" y="664" type="line"/>
    </contour>
  </outline>
</glyph>
<glyph name="rightanglebracket-math" format="2">
  <advance width="1296"/>
  <unicode hex="27E9"/>
  <outline>
    <contour>
      <point x="74" y="-440" type="line"/>
      <point x="1080" y="664" type="line"/>
      <point x="542" y="1768" type="line"/>
      <point x="512" y="1616" type="line"/>
      <point x="970" y="670" type="line"/>
      <point x="108" y="-274" type="line"/>
    </contour>
  </outline>
</glyph>
<glyph name="_part.cy-descender-lc-center" format="2">
  <anchor x="-116" y="0" name="_bottom"/>
  <outline>
    <contour>
      <point x="-246" y="-366" type="line"/>
      <point x="-114" y="-234" type="line"/>
      <point x="-58" y="28" type="line"/>
      <point x="-162" y="28" type="line"/>
    </contour>
  </outline>
</glyph>
<glyph name="_part.dollar" format="2">
  <advance width="1296"/>
  <anchor x="580" y="0" name="bottom"/>
  <anchor x="840" y="1400" name="top"/>
  <outline>
    <contour>
      <point x="584" y="-30" type="curve" smooth="yes"/>
      <point x="878" y="-30"/>
      <point x="1076" y="144"/>
      <point x="1076" y="406" type="curve" smooth="yes"/>
      <point x="1076" y="552"/>
      <point x="994" y="656"/>
      <point x="832" y="720" type="curve" smooth="yes"/>
      <point x="678" y="780" type="line" smooth="yes"/>
      <point x="512" y="844"/>
      <point x="450" y="924"/>
      <point x="450" y="1028" type="curve" smooth="yes"/>
      <point x="450" y="1210"/>
      <point x="600" y="1326"/>
      <point x="800" y="1326" type="curve" smooth="yes"/>
      <point x="954" y="1326"/>
      <point x="1104" y="1278"/>
      <point x="1200" y="1194" type="curve"/>
      <point x="1225" y="1311" type="line"/>
      <point x="1131" y="1383"/>
      <point x="992" y="1430"/>
      <point x="830" y="1430" type="curve" smooth="yes"/>
      <point x="558" y="1430"/>
      <point x="340" y="1266"/>
      <point x="340" y="1002" type="curve" smooth="yes"/>
      <point x="340" y="854"/>
      <point x="432" y="754"/>
      <point x="594" y="690" type="curve" smooth="yes"/>
      <point x="736" y="634" type="line" smooth="yes"/>
      <point x="894" y="572"/>
      <point x="966" y="490"/>
      <point x="966" y="378" type="curve" smooth="yes"/>
      <point x="966" y="190"/>
      <point x="814" y="78"/>
      <point x="598" y="78" type="curve" smooth="yes"/>
      <point x="422" y="78"/>
      <point x="264" y="130"/>
      <point x="156" y="220" type="curve"/>
      <point x="130" y="100" type="line"/>
      <point x="242" y="17"/>
      <point x="415" y="-30"/>
    </contour>
  </outline>
</glyph>
<glyph name="_part.hryvniaBase" format="2">
  <advance width="1227"/>
  <guideline x="470" y="85" angle="78.0239"/>
  <guideline x="184" y="617" angle="78.0239"/>
  <anchor x="788" y="1400" name="top"/>
  <outline>
    <contour>
      <point x="600" y="-30" type="curve" smooth="yes"/>
      <point x="730" y="-30"/>
      <point x="866" y="-4"/>
      <point x="970" y="44" type="curve"/>
      <point x="998" y="170" type="line"/>
      <point x="880" y="112"/>
      <point x="748" y="78"/>
      <point x="606" y="78" type="curve" smooth="yes"/>
      <point x="418" y="78"/>
      <point x="244" y="152"/>
      <point x="244" y="322" type="curve" smooth="yes"/>
      <point x="244" y="506"/>
      <point x="420" y="566"/>
      <point x="588" y="638" type="curve" smooth="yes"/>
      <point x="706" y="688" type="line" smooth="yes"/>
      <point x="914" y="776"/>
      <point x="1124" y="864"/>
      <point x="1124" y="1090" type="curve" smooth="yes"/>
      <point x="1124" y="1314"/>
      <point x="902" y="1428"/>
      <point x="650" y="1428" type="curve" smooth="yes"/>
      <point x="532" y="1428"/>
      <point x="422" y="1402"/>
      <point x="332" y="1358" type="curve"/>
      <point x="306" y="1234" type="line"/>
      <point x="404" y="1292"/>
      <point x="528" y="1324"/>
      <point x="652" y="1324" type="curve" smooth="yes"/>
      <point x="844" y="1324"/>
      <point x="1016" y="1236"/>
      <point x="1016" y="1076" type="curve" smooth="yes"/>
      <point x="1016" y="896"/>
      <point x="846" y="850"/>
      <point x="668" y="776" type="curve" smooth="yes"/>
      <point x="534" y="720" type="line" smooth="yes"/>
      <point x="338" y="638"/>
      <point x="134" y="548"/>
      <point x="134" y="314" type="curve" smooth="yes"/>
      <point x="134" y="82"/>
      <point x="344" y="-30"/>
    </contour>
  </outline>
</glyph>
<glyph name="_part.rupee" format="2">
  <advance width="1296"/>
  <guideline x="124" y="674" angle="90"/>
  <outline>
    <contour>
      <point x="592" y="0" type="line"/>
      <point x="728" y="0" type="line"/>
      <point x="382" y="616" type="line"/>
      <point x="670" y="638"/>
      <point x="886" y="780"/>
      <point x="886" y="1050" type="curve" smooth="yes"/>
      <point x="886" y="1260"/>
      <point x="742" y="1400"/>
      <point x="512" y="1400" type="curve" smooth="yes"/>
      <point x="396" y="1400" type="line"/>
      <point x="374" y="1296" type="line"/>
      <point x="480" y="1296" type="line" smooth="yes"/>
      <point x="678" y="1296"/>
      <point x="774" y="1196"/>
      <point x="776" y="1040" type="curve" smooth="yes"/>
      <point x="776" y="836"/>
      <point x="610" y="720"/>
      <point x="374" y="720" type="curve" smooth="yes"/>
      <point x="252" y="720" type="line"/>
      <point x="236" y="642" type="line"/>
    </contour>
  </outline>
</glyph>
<glyph name="circumflexcomb.narrow" format="2">
  <anchor x="-636" y="960" name="_top"/>
  <anchor x="-534" y="1444" name="top"/>
  <anchor x="-308" y="1224" name="top_right"/>
  <outline>
    <contour>
      <point x="-872" y="1170" type="line"/>
      <point x="-746" y="1170" type="line"/>
      <point x="-528" y="1426" type="line"/>
      <point x="-432" y="1170" type="line"/>
      <point x="-322" y="1170" type="line"/>
      <point x="-456" y="1504" type="line"/>
      <point x="-576" y="1504" type="line"/>
    </contour>
  </outline>
</glyph>
<glyph name="dblgravecomb.narrow" format="2">
  <anchor x="-618" y="960" name="_top"/>
  <outline>
    <contour>
      <point x="-384" y="1170" type="line"/>
      <point x="-424" y="1504" type="line"/>
      <point x="-536" y="1504" type="line"/>
      <point x="-486" y="1170" type="line"/>
    </contour>
    <contour>
      <point x="-658" y="1170" type="line"/>
      <point x="-698" y="1504" type="line"/>
      <point x="-812" y="1504" type="line"/>
      <point x="-758" y="1170" type="line"/>
    </contour>
  </outline>
</glyph>
<glyph name="f.calt" format="2">
  <advance width="714"/>
  <outline>
    <contour>
      <point x="178" y="0" type="line"/>
      <point x="291" y="0" type="line"/>
      <point x="472" y="856" type="line"/>
      <point x="740" y="856" type="line"/>
      <point x="764" y="960" type="line"/>
      <point x="494" y="960" type="line"/>
      <point x="552" y="1234" type="line" smooth="yes"/>
      <point x="570" y="1318"/>
      <point x="601" y="1362"/>
      <point x="671" y="1362" type="curve" smooth="yes"/>
      <point x="697" y="1362"/>
      <point x="722" y="1356"/>
      <point x="745" y="1345" type="curve"/>
      <point x="768" y="1457" type="line"/>
      <point x="742" y="1465"/>
      <point x="712" y="1470"/>
      <point x="668" y="1470" type="curve" smooth="yes"/>
      <point x="551" y="1470"/>
      <point x="475" y="1401"/>
      <point x="444" y="1254" type="curve" smooth="yes"/>
    </contour>
    <contour>
      <point x="160" y="856" type="line"/>
      <point x="412" y="856" type="line"/>
      <point x="440" y="980" type="line"/>
      <point x="170" y="896" type="line"/>
    </contour>
  </outline>
</glyph>
<glyph name="ge-cy.loclBGR" format="2">
  <advance width="966"/>
  <anchor x="378" y="0" name="bottom"/>
  <anchor x="614" y="960" name="top"/>
  <outline>
    <contour>
      <point x="380" y="-30" type="curve" smooth="yes"/>
      <point x="508" y="-30"/>
      <point x="644" y="10"/>
      <point x="750" y="78" type="curve"/>
      <point x="774" y="210" type="line"/>
      <point x="670" y="128"/>
      <point x="530" y="78"/>
      <point x="400" y="78" type="curve" smooth="yes"/>
      <point x="266" y="78"/>
      <point x="190" y="122"/>
      <point x="190" y="218" type="curve" smooth="yes"/>
      <point x="190" y="334"/>
      <point x="328" y="392"/>
      <point x="492" y="444" type="curve" smooth="yes"/>
      <point x="710" y="512"/>
      <point x="900" y="588"/>
      <point x="900" y="766" type="curve" smooth="yes"/>
      <point x="900" y="916"/>
      <point x="776" y="1000"/>
      <point x="600" y="1000" type="curve" smooth="yes"/>
      <point x="480" y="1000"/>
      <point x="362" y="964"/>
      <point x="258" y="894" type="curve"/>
      <point x="234" y="762" type="line"/>
      <point x="328" y="840"/>
      <point x="466" y="892"/>
      <point x="592" y="892" type="curve" smooth="yes"/>
      <point x="706" y="892"/>
      <point x="780" y="850"/>
      <point x="780" y="756" type="curve" smooth="yes"/>
      <point x="780" y="646"/>
      <point x="648" y="588"/>
      <point x="480" y="536" type="curve" smooth="yes"/>
      <point x="248" y="464"/>
      <point x="70" y="388"/>
      <point x="70" y="198" type="curve" smooth="yes"/>
      <point x="70" y="48"/>
      <point x="208" y="-30"/>
    </contour>
  </outline>
</glyph>
<glyph name="horncomb.alt" format="2">
  <anchor x="-106" y="960" name="_horn"/>
  <outline>
    <contour>
      <point x="-88" y="802" type="curve" smooth="yes"/>
      <point x="46" y="802"/>
      <point x="120" y="904"/>
      <point x="120" y="1012" type="curve" smooth="yes"/>
      <point x="120" y="1055"/>
      <point x="108" y="1102"/>
      <point x="82" y="1148" type="curve"/>
      <point x="-24" y="1148" type="line"/>
      <point x="1" y="1092"/>
      <point x="14" y="1044"/>
      <point x="12" y="1002" type="curve" smooth="yes"/>
      <point x="12" y="940"/>
      <point x="-24" y="886"/>
      <point x="-94" y="886" type="curve" smooth="yes"/>
      <point x="-112" y="886"/>
      <point x="-136" y="890"/>
      <point x="-162" y="898" type="curve"/>
      <point x="-180" y="820" type="line"/>
      <point x="-144" y="810"/>
      <point x="-118" y="802"/>
    </contour>
  </outline>
</glyph>
<glyph name="horncomb.case" format="2">
  <anchor x="-286" y="1400" name="_horn"/>
  <outline>
    <contour>
      <point x="-194" y="1220" type="curve" smooth="yes"/>
      <point x="-48" y="1213"/>
      <point x="34" y="1308"/>
      <point x="34" y="1416" type="curve" smooth="yes"/>
      <point x="34" y="1462"/>
      <point x="21" y="1510"/>
      <point x="-11" y="1556" type="curve"/>
      <point x="-120" y="1556" type="line"/>
      <point x="-90" y="1504"/>
      <point x="-74" y="1453"/>
      <point x="-74" y="1410" type="curve" smooth="yes"/>
      <point x="-74" y="1344"/>
      <point x="-113" y="1298"/>
      <point x="-200" y="1302" type="curve" smooth="yes"/>
      <point x="-300" y="1307"/>
      <point x="-482" y="1430"/>
      <point x="-728" y="1430" type="curve"/>
      <point x="-742" y="1364" type="line"/>
      <point x="-481" y="1352"/>
      <point x="-326" y="1226"/>
    </contour>
  </outline>
</glyph>
<glyph name="macroncomb.case" format="2">
  <anchor x="-592" y="1398" name="_top"/>
  <outline>
    <contour>
      <point x="-838" y="1648" type="line"/>
      <point x="-242" y="1648" type="line"/>
      <point x="-220" y="1748" type="line"/>
      <point x="-816" y="1748" type="line"/>
    </contour>
  </outline>
</glyph>
<glyph name="one.dnom" format="2">
  <advance width="616"/>
  <outline>
    <contour>
      <point x="236" y="0" type="line"/>
      <point x="336" y="0" type="line"/>
      <point x="532" y="930" type="line"/>
      <point x="524" y="930" type="line"/>
      <point x="146" y="802" type="line"/>
      <point x="126" y="710" type="line"/>
      <point x="406" y="800" type="line"/>
    </contour>
  </outline>
</glyph>
<glyph name="periodcentered.loclCAT.case" format="2">
  <outline>
    <contour>
      <point x="-226" y="630" type="curve" smooth="yes"/>
      <point x="-160" y="630"/>
      <point x="-102" y="678"/>
      <point x="-102" y="746" type="curve" smooth="yes"/>
      <point x="-102" y="798"/>
      <point x="-144" y="838"/>
      <point x="-202" y="838" type="curve" smooth="yes"/>
      <point x="-268" y="838"/>
      <point x="-326" y="790"/>
      <point x="-326" y="722" type="curve" smooth="yes"/>
      <point x="-326" y="670"/>
      <point x="-284" y="630"/>
    </contour>
  </outline>
</glyph>
<glyph name="three.numr" format="2">
  <advance width="816"/>
  <outline>
    <contour>
      <point x="406" y="470" type="curve" smooth="yes"/>
      <point x="602" y="470"/>
      <point x="764" y="598"/>
      <point x="764" y="784" type="curve" smooth="yes"/>
      <point x="764" y="934"/>
      <point x="630" y="1014"/>
      <point x="466" y="1022" type="curve"/>
      <point x="840" y="1316" type="line"/>
      <point x="856" y="1400" type="line"/>
      <point x="290" y="1400" type="line"/>
      <point x="250" y="1308" type="line"/>
      <point x="696" y="1308" type="line"/>
      <point x="314" y="1006" type="line"/>
      <point x="332" y="942" type="line"/>
      <point x="356" y="946"/>
      <point x="384" y="948"/>
      <point x="412" y="948" type="curve" smooth="yes"/>
      <point x="564" y="948"/>
      <point x="658" y="884"/>
      <point x="658" y="780" type="curve" smooth="yes"/>
      <point x="658" y="650"/>
      <point x="554" y="566"/>
      <point x="410" y="566" type="curve" smooth="yes"/>
      <point x="310" y="566"/>
      <point x="210" y="600"/>
      <point x="144" y="656" type="curve"/>
      <point x="122" y="554" type="line"/>
      <point x="188" y="505"/>
      <point x="298" y="470"/>
    </contour>
  </outline>
</glyph>
<glyph name="tildecomb.case" format="2">
  <anchor x="-784" y="1398" name="_top"/>
  <anchor x="-708" y="1758" name="top"/>
  <outline>
    <contour>
      <point x="-1057" y="1662" type="line"/>
      <point x="-1007" y="1714"/>
      <point x="-948" y="1741"/>
      <point x="-871" y="1741" type="curve" smooth="yes"/>
      <point x="-777" y="1741"/>
      <point x="-667" y="1662"/>
      <point x="-557" y="1662" type="curve" smooth="yes"/>
      <point x="-490" y="1662"/>
      <point x="-432" y="1686"/>
      <point x="-384" y="1726" type="curve"/>
      <point x="-362" y="1838" type="line"/>
      <point x="-415" y="1783"/>
      <point x="-476" y="1759"/>
      <point x="-548" y="1759" type="curve" smooth="yes"/>
      <point x="-642" y="1759"/>
      <point x="-753" y="1838"/>
      <point x="-862" y="1838" type="curve" smooth="yes"/>
      <point x="-927" y="1838"/>
      <point x="-986" y="1815"/>
      <point x="-1035" y="1774" type="curve"/>
    </contour>
  </outline>
</glyph>
